<svg xmlns="http://www.w3.org/2000/svg" width="1024" height="1024" viewBox="0 0 1024 1024">
  <defs>
    <linearGradient id="bg" x1="0" y1="0" x2="1" y2="1">
      <stop offset="0%" stop-color="#0b5cab"/>
      <stop offset="100%" stop-color="#083f79"/>
    </linearGradient>
    <linearGradient id="accent" x1="0" y1="0" x2="1" y2="1">
      <stop offset="0%" stop-color="#7fe8ff"/>
      <stop offset="100%" stop-color="#4fd0e8"/>
    </linearGradient>
    <filter id="shadow" x="-20%" y="-20%" width="140%" height="140%">
      <feDropShadow dx="0" dy="16" stdDeviation="20" flood-color="#04172d" flood-opacity="0.35"/>
    </filter>
  </defs>

  <rect x="64" y="64" width="896" height="896" rx="224" fill="url(#bg)"/>

  <g filter="url(#shadow)">
    <path
      fill="#f7fbff"
      d="M315 280h328c43 0 77 34 77 77v67c0 18 10 34 26 42l38 20c23 12 38 36 38 62v118c0 26-15 50-38 62l-38 20c-16 8-26 24-26 42v67c0 43-34 77-77 77H315c-43 0-77-34-77-77v-67c0-18-10-34-26-42l-38-20c-23-12-38-36-38-62V548c0-26 15-50 38-62l38-20c16-8 26-24 26-42v-67c0-43 34-77 77-77Z"
    />

    <rect x="334" y="370" width="305" height="44" rx="22" fill="#d7e7fb"/>
    <rect x="334" y="452" width="250" height="44" rx="22" fill="#d7e7fb"/>
    <rect x="334" y="534" width="208" height="44" rx="22" fill="#d7e7fb"/>
    <rect x="334" y="616" width="230" height="44" rx="22" fill="#d7e7fb"/>
  </g>

  <g transform="translate(666 650) rotate(-32)">
    <path
      fill="url(#accent)"
      d="M-32-216c40 0 73 33 73 73 0 13-4 27-11 38l128 128 38-38c13-13 35-13 49 0l22 22c13 13 13 35 0 49L143 184c-13 13-35 13-49 0l-22-22c-13-13-13-35 0-49l38-38L-18-53c-11 7-25 11-38 11-40 0-73-33-73-73 0-12 3-23 8-34l52 52 43-43-52-52c11-5 22-8 34-8Z"
    />
    <circle cx="-32" cy="-143" r="25" fill="#f7fbff" opacity="0.95"/>
  </g>
</svg>
